<?xml version="1.0" standalone="no"?>
<!DOCTYPE svg PUBLIC "-//W3C//DTD SVG 20010904//EN"
 "http://www.w3.org/TR/2001/REC-SVG-20010904/DTD/svg10.dtd">
<svg version="1.0" xmlns="http://www.w3.org/2000/svg"
 width="128.000000pt" height="128.000000pt" viewBox="0 0 128.000000 128.000000"
 preserveAspectRatio="xMidYMid meet">
<metadata>
Created by potrace 1.11, written by Peter Selinger 2001-2013
</metadata>
<g transform="translate(0.000000,128.000000) scale(0.100000,-0.100000)"
fill="#000000" stroke="none">
<path d="M319 1073 c-1 -5 -1 -10 -1 -13 0 -3 -11 -6 -24 -6 -13 -1 -24 1 -24
5 0 4 -7 8 -15 8 -8 0 -12 -4 -9 -9 3 -4 1 -8 -5 -8 -5 0 -11 6 -14 13 -3 9
-7 9 -20 -2 -11 -9 -17 -10 -17 -2 0 6 -5 11 -11 11 -5 0 -8 -4 -5 -8 7 -12
-58 -9 -67 3 -6 7 -10 6 -14 -3 -4 -10 -8 -10 -21 0 -12 10 -14 10 -8 1 4 -7
3 -13 -3 -13 -5 0 -13 5 -17 11 -5 8 -10 6 -16 -5 -7 -13 -5 -21 9 -32 17 -13
17 -14 -2 -8 -19 5 -19 5 1 -8 12 -7 19 -19 16 -27 -3 -8 0 -11 6 -7 10 6 35
-27 37 -49 1 -5 7 -9 15 -7 11 3 11 0 -1 -14 -9 -12 -9 -15 -1 -10 17 10 38
-4 21 -15 -11 -7 -11 -9 1 -9 18 0 43 -37 35 -50 -3 -6 1 -7 9 -4 9 3 16 1 16
-6 0 -6 7 -18 15 -27 8 -8 13 -19 10 -24 -4 -5 1 -9 10 -9 9 0 13 -4 10 -10
-3 -5 -1 -10 5 -10 7 0 10 -7 7 -14 -4 -10 -1 -13 9 -9 9 3 14 -2 14 -17 0
-11 5 -18 10 -15 9 6 12 -1 9 -22 0 -3 6 -10 15 -15 9 -5 14 -14 10 -19 -3 -5
0 -8 8 -7 8 2 12 -6 10 -22 -1 -17 1 -21 7 -11 6 10 12 5 22 -18 8 -17 19 -31
26 -31 7 0 10 -9 8 -20 -2 -11 0 -18 4 -16 13 8 54 -42 48 -58 -4 -11 -1 -13
10 -9 13 5 15 2 11 -15 -4 -12 -3 -20 1 -18 7 5 41 -29 41 -40 0 -3 7 -12 15
-21 8 -8 12 -19 9 -25 -4 -7 -2 -8 4 -4 11 7 17 -6 13 -27 -1 -5 3 -6 9 -2 5
3 10 -1 10 -10 0 -9 5 -13 10 -10 6 3 10 -1 10 -9 0 -9 5 -16 11 -16 5 0 7 -5
4 -10 -3 -5 1 -10 10 -10 9 0 13 -4 10 -10 -3 -5 -1 -10 5 -10 6 0 8 -4 5 -10
-3 -6 1 -7 9 -4 9 3 15 9 14 12 -2 21 4 31 17 26 8 -4 15 -2 15 4 0 6 -6 13
-12 15 -8 3 -6 6 4 6 10 1 17 5 15 10 -1 5 7 17 18 26 11 9 13 14 5 10 -10 -4
-9 -2 3 8 9 8 17 19 17 26 0 6 5 11 10 11 6 0 10 6 10 14 0 7 8 20 17 27 14
12 16 12 8 0 -5 -9 -4 -12 3 -7 6 4 8 14 5 23 -5 13 -2 15 12 10 15 -6 16 -5
6 7 -10 12 -8 16 9 21 11 3 18 10 15 15 -3 5 4 18 16 29 12 11 18 24 14 32 -5
7 -4 10 1 7 8 -5 39 20 39 32 0 3 3 4 8 2 4 -1 6 1 5 5 -2 13 21 63 29 63 5 0
14 14 21 30 8 17 18 28 23 24 5 -3 9 2 9 10 0 9 6 16 14 16 9 0 12 7 9 20 -4
14 -1 20 8 18 8 -2 15 7 17 20 3 19 6 21 18 11 12 -10 13 -9 8 5 -4 11 -1 16
12 16 16 0 17 2 4 10 -13 9 -13 11 0 19 8 5 18 7 22 5 4 -3 5 2 2 10 -3 9 -1
16 6 16 6 0 8 5 5 10 -3 6 -1 10 4 10 6 0 11 7 11 15 0 8 5 15 10 15 6 0 10 7
10 15 0 8 5 15 11 15 5 0 7 4 4 10 -3 6 1 7 10 4 9 -4 15 -3 13 2 -4 15 22 55
32 49 6 -3 7 1 4 9 -3 9 -1 16 6 16 6 0 8 5 5 10 -3 6 -1 10 4 10 6 0 11 7 11
16 0 8 -5 12 -10 9 -6 -4 -17 -2 -25 5 -10 8 -15 8 -20 -1 -6 -8 -10 -8 -15 2
-7 10 -11 10 -24 0 -11 -9 -16 -10 -16 -2 0 6 -5 11 -11 11 -5 0 -8 -4 -5 -8
7 -12 -58 -9 -66 3 -6 7 -10 7 -15 -1 -5 -5 -19 -10 -33 -10 -14 0 -28 5 -32
10 -5 7 -12 6 -19 -4 -8 -12 -12 -12 -16 -2 -4 10 -8 10 -21 0 -13 -11 -14
-11 -7 2 8 13 6 13 -8 2 -18 -15 -41 -7 -31 10 4 7 2 8 -5 4 -6 -4 -8 -12 -5
-18 4 -6 -3 -5 -16 2 -15 8 -20 8 -16 1 4 -6 2 -11 -3 -11 -6 0 -11 4 -11 8 0
5 -7 9 -15 9 -8 0 -12 -4 -9 -9 3 -4 0 -8 -5 -8 -6 0 -11 5 -11 11 0 8 -6 7
-17 -2 -15 -12 -16 -12 -8 1 8 13 6 13 -8 2 -18 -15 -41 -7 -31 10 4 7 2 8 -5
4 -6 -4 -8 -12 -5 -18 4 -6 -3 -5 -16 2 -15 8 -20 8 -16 1 4 -6 2 -11 -3 -11
-6 0 -11 5 -11 11 0 8 -6 7 -17 -2 -15 -12 -16 -12 -8 1 7 13 6 13 -7 2 -17
-14 -39 -13 -50 3 -5 7 -11 6 -15 -1 -5 -5 -19 -10 -33 -10 -14 0 -29 5 -33
10 -6 8 -10 7 -14 -1 -3 -8 -11 -10 -21 -5 -21 9 -53 9 -70 -1 -7 -5 -12 -3
-12 4 0 8 -5 7 -17 -2 -15 -12 -16 -12 -8 1 8 13 6 13 -8 2 -17 -14 -42 -7
-32 9 4 5 4 9 1 9 -3 0 -7 -3 -7 -7z"/>
<path d="M416 462 c-3 -5 1 -9 9 -9 8 0 12 4 9 9 -3 4 -7 8 -9 8 -2 0 -6 -4
-9 -8z"/>
</g>
</svg>
